<svg width="452" height="98" viewBox="0 0 452 98" version="1.1" xmlns="http://www.w3.org/2000/svg" xmlns:xlink="http://www.w3.org/1999/xlink">
<title>Rectangle</title>
<desc>Created using Figma</desc>
<g id="Canvas" transform="translate(118 134)">
<g id="Rectangle">
<g id="Rectangle">
<use xlink:href="#path0_fill" transform="translate(-118 -134)" fill="#4F4E4E"/>
</g>
<g id="Digital Design">
<use xlink:href="#path1_fill" transform="translate(57 -127)" fill="#FFFFFF"/>
</g>
<g id="D.D.">
<use xlink:href="#path2_fill" transform="translate(-95 -154)" fill="#FF5757"/>
</g>
</g>
</g>
<defs>
<path id="path0_fill" d="M 0 0L 452 0L 452 98L 0 98L 0 0Z"/>
<path id="path1_fill" d="M 7.86133 58.0234C 7.86133 57.3724 8.26823 56.5423 9.08203 55.5332C 9.89583 54.4915 10.9049 53.3197 12.1094 52.0176C 13.3138 50.7155 14.6322 49.2995 16.0645 47.7695C 17.4967 46.2396 18.8151 44.6608 20.0195 43.0332C 21.224 41.373 22.2331 39.6966 23.0469 38.0039C 23.8607 36.2786 24.2676 34.5859 24.2676 32.9258C 24.2676 32.0469 24.0234 31.2982 23.5352 30.6797C 23.0469 30.0286 22.4121 29.4753 21.6309 29.0195C 20.8822 28.5638 20.0195 28.2057 19.043 27.9453C 18.099 27.6849 17.1387 27.4896 16.1621 27.3594C 15.1855 27.1966 14.2578 27.099 13.3789 27.0664C 12.5 27.0013 11.7513 26.9688 11.1328 26.9688C 10.9701 26.9688 10.7585 26.985 10.498 27.0176C 10.2376 27.0176 9.96094 27.0339 9.66797 27.0664C 9.40755 27.0664 9.16341 27.0827 8.93555 27.1152C 8.70768 27.1478 8.57747 27.1641 8.54492 27.1641L 7.91016 27.75C 7.91016 27.8151 7.89388 28.0918 7.86133 28.5801C 7.86133 29.0684 7.84505 29.6217 7.8125 30.2402C 7.8125 30.8587 7.8125 31.4935 7.8125 32.1445L 7.8125 33.6582C 7.8125 36.946 7.92643 40.2174 8.1543 43.4727C 8.41471 46.6953 8.54492 49.9505 8.54492 53.2383C 8.54492 53.4336 8.54492 53.6452 8.54492 53.873C 8.57747 54.1009 8.57747 54.3288 8.54492 54.5566C 8.51237 54.752 8.41471 54.931 8.25195 55.0938C 8.12174 55.224 7.91016 55.2891 7.61719 55.2891C 7.42188 55.2891 7.22656 55.2402 7.03125 55.1426C 6.83594 55.0449 6.72201 54.8822 6.68945 54.6543L 4.78516 28.9707C 4.6875 29.0358 4.50846 29.1335 4.24805 29.2637C 4.02018 29.3613 3.77604 29.4753 3.51562 29.6055C 3.25521 29.7357 2.99479 29.8822 2.73438 30.0449C 2.50651 30.1751 2.36003 30.2402 2.29492 30.2402C 2.26237 30.2402 2.19727 30.2565 2.09961 30.2891C 2.03451 30.2891 1.98568 30.2891 1.95312 30.2891C 1.79036 30.2891 1.59505 30.2565 1.36719 30.1914C 1.17188 30.0938 1.07422 29.8984 1.07422 29.6055C 1.07422 29.1172 1.17188 28.7266 1.36719 28.4336C 1.59505 28.1081 1.87174 27.8151 2.19727 27.5547C 2.55534 27.2943 2.92969 27.0339 3.32031 26.7734C 3.71094 26.513 4.06901 26.1875 4.39453 25.7969C 4.7526 25.3737 5.0293 24.8529 5.22461 24.2344C 5.45247 23.6159 5.56641 22.8346 5.56641 21.8906C 6.21745 21.8906 6.62435 22.0046 6.78711 22.2324C 6.94987 22.4603 7.04753 22.737 7.08008 23.0625C 7.11263 23.3555 7.14518 23.6647 7.17773 23.9902C 7.24284 24.2832 7.48698 24.4948 7.91016 24.625C 8.82161 24.5924 9.91211 24.5924 11.1816 24.625C 12.4837 24.6576 13.8346 24.7715 15.2344 24.9668C 16.6667 25.1296 18.0664 25.39 19.4336 25.748C 20.8333 26.1061 22.0703 26.6107 23.1445 27.2617C 24.2513 27.9128 25.1139 28.7428 25.7324 29.752C 26.3835 30.7285 26.6764 31.9329 26.6113 33.3652C 26.1882 35.8717 25.3743 38.2806 24.1699 40.5918C 22.998 42.903 21.5983 45.1328 19.9707 47.2812C 18.3757 49.3971 16.6341 51.4316 14.7461 53.3848C 12.8906 55.3379 11.0352 57.2096 9.17969 59C 9.14714 59 9.09831 59 9.0332 59C 8.9681 59.0326 8.91927 59.0488 8.88672 59.0488C 8.59375 59.0488 8.34961 58.9512 8.1543 58.7559C 7.95898 58.5605 7.86133 58.3164 7.86133 58.0234ZM 29.7852 58.0234C 29.7852 55.9076 29.7363 53.6777 29.6387 51.334C 29.5736 48.9902 29.4922 46.6302 29.3945 44.2539C 29.3294 41.8451 29.3132 39.485 29.3457 37.1738C 29.3783 34.8626 29.5247 32.6979 29.7852 30.6797C 29.8503 30.6471 29.9967 30.6309 30.2246 30.6309C 30.485 30.5983 30.6641 30.582 30.7617 30.582C 31.2174 30.582 31.5755 30.6634 31.8359 30.8262C 32.1289 30.9564 32.2754 31.2656 32.2754 31.7539C 32.2754 33.6745 32.2591 35.7741 32.2266 38.0527C 32.2266 40.2988 32.2103 42.5938 32.1777 44.9375C 32.1777 47.2487 32.1777 49.5436 32.1777 51.8223C 32.1777 54.1009 32.2103 56.168 32.2754 58.0234C 32.3079 58.5768 32.194 58.9349 31.9336 59.0977C 31.7057 59.293 31.4128 59.3906 31.0547 59.3906C 30.6641 59.3906 30.3385 59.293 30.0781 59.0977C 29.8177 58.9349 29.7201 58.5768 29.7852 58.0234ZM 28.7109 23.0625C 28.7109 22.6719 28.8411 22.4115 29.1016 22.2812C 29.362 22.151 29.6549 22.0859 29.9805 22.0859C 30.6315 22.0859 31.0384 22.2975 31.2012 22.7207C 31.3639 23.1439 31.4453 23.6322 31.4453 24.1855C 31.25 24.5436 31.0059 24.804 30.7129 24.9668C 30.4199 25.097 30.1107 25.1296 29.7852 25.0645C 29.4922 24.9668 29.2318 24.7552 29.0039 24.4297C 28.8086 24.1042 28.7109 23.6484 28.7109 23.0625ZM 39.0137 78.0918C 41.8783 77.929 44.1243 77.1803 45.752 75.8457C 47.4121 74.5111 48.6491 72.7858 49.4629 70.6699C 50.2767 68.554 50.765 66.1289 50.9277 63.3945C 51.0905 60.6927 51.1068 57.8932 50.9766 54.9961C 50.8464 52.099 50.651 49.2018 50.3906 46.3047C 50.1628 43.375 50.0651 40.6569 50.0977 38.1504C 48.6979 42.252 47.3796 45.5723 46.1426 48.1113C 44.9056 50.6178 43.75 52.5221 42.6758 53.8242C 41.6341 55.0938 40.6738 55.875 39.7949 56.168C 38.9486 56.4284 38.1999 56.3796 37.5488 56.0215C 36.8978 55.6309 36.3607 55.0286 35.9375 54.2148C 35.5469 53.3685 35.2702 52.5059 35.1074 51.627C 35.1725 50.1296 35.4655 48.4857 35.9863 46.6953C 36.5397 44.8724 37.2396 43.0983 38.0859 41.373C 38.9648 39.6152 39.974 37.9876 41.1133 36.4902C 42.2526 34.9603 43.457 33.7721 44.7266 32.9258C 45.9961 32.0469 47.3145 31.5911 48.6816 31.5586C 50.0488 31.4935 51.3672 32.0143 52.6367 33.1211C 52.6693 33.1536 52.7181 33.5931 52.7832 34.4395C 52.8809 35.2533 52.9785 36.3438 53.0762 37.7109C 53.2064 39.0456 53.3366 40.5592 53.4668 42.252C 53.6296 43.9121 53.776 45.6048 53.9062 47.3301C 54.0365 49.0228 54.1504 50.6504 54.248 52.2129C 54.3457 53.7754 54.4434 55.1263 54.541 56.2656C 54.6712 58.1211 54.5898 60.0905 54.2969 62.1738C 54.0365 64.2572 53.6133 66.2754 53.0273 68.2285C 52.4414 70.2142 51.6927 72.0697 50.7812 73.7949C 49.9023 75.5202 48.877 76.9362 47.7051 78.043C 46.5658 79.1497 45.2799 79.8496 43.8477 80.1426C 42.4479 80.4681 40.9505 80.224 39.3555 79.4102C 39.2578 79.4102 39.1113 79.3939 38.916 79.3613C 38.7207 79.3613 38.5579 79.3125 38.4277 79.2148C 38.3301 79.1172 38.3138 78.987 38.3789 78.8242C 38.444 78.6615 38.6556 78.4173 39.0137 78.0918ZM 37.6465 51.2852C 37.972 52.2943 38.3952 52.8151 38.916 52.8477C 39.4694 52.8477 40.0553 52.5059 40.6738 51.8223C 41.2923 51.1061 41.9596 50.1133 42.6758 48.8438C 43.4245 47.5742 44.1569 46.1908 44.873 44.6934C 45.5892 43.196 46.2891 41.666 46.9727 40.1035C 47.6888 38.5085 48.3561 37.0273 48.9746 35.6602C 48.9746 35.3021 48.8932 34.9766 48.7305 34.6836C 48.5677 34.3581 48.2096 34.2604 47.6562 34.3906C 46.7448 34.5859 45.8496 35.0254 44.9707 35.709C 44.1243 36.3926 43.3268 37.2389 42.5781 38.248C 41.862 39.2246 41.1947 40.3151 40.5762 41.5195C 39.9902 42.6914 39.4694 43.8796 39.0137 45.084C 38.5905 46.2559 38.2487 47.3789 37.9883 48.4531C 37.7604 49.5273 37.6465 50.4714 37.6465 51.2852ZM 58.3008 58.0234C 58.3008 55.9076 58.252 53.6777 58.1543 51.334C 58.0892 48.9902 58.0078 46.6302 57.9102 44.2539C 57.8451 41.8451 57.8288 39.485 57.8613 37.1738C 57.8939 34.8626 58.0404 32.6979 58.3008 30.6797C 58.3659 30.6471 58.5124 30.6309 58.7402 30.6309C 59.0007 30.5983 59.1797 30.582 59.2773 30.582C 59.7331 30.582 60.0911 30.6634 60.3516 30.8262C 60.6445 30.9564 60.791 31.2656 60.791 31.7539C 60.791 33.6745 60.7747 35.7741 60.7422 38.0527C 60.7422 40.2988 60.7259 42.5938 60.6934 44.9375C 60.6934 47.2487 60.6934 49.5436 60.6934 51.8223C 60.6934 54.1009 60.7259 56.168 60.791 58.0234C 60.8236 58.5768 60.7096 58.9349 60.4492 59.0977C 60.2214 59.293 59.9284 59.3906 59.5703 59.3906C 59.1797 59.3906 58.8542 59.293 58.5938 59.0977C 58.3333 58.9349 58.2357 58.5768 58.3008 58.0234ZM 57.2266 23.0625C 57.2266 22.6719 57.3568 22.4115 57.6172 22.2812C 57.8776 22.151 58.1706 22.0859 58.4961 22.0859C 59.1471 22.0859 59.554 22.2975 59.7168 22.7207C 59.8796 23.1439 59.9609 23.6322 59.9609 24.1855C 59.7656 24.5436 59.5215 24.804 59.2285 24.9668C 58.9355 25.097 58.6263 25.1296 58.3008 25.0645C 58.0078 24.9668 57.7474 24.7552 57.5195 24.4297C 57.3242 24.1042 57.2266 23.6484 57.2266 23.0625ZM 65.4785 38.1504C 65.153 38.3132 64.8438 38.4922 64.5508 38.6875C 64.2904 38.8503 64.0299 39.013 63.7695 39.1758C 63.5091 39.306 63.2487 39.4036 62.9883 39.4688C 62.7279 39.5339 62.4512 39.5339 62.1582 39.4688C 61.9629 39.4688 61.8001 39.3548 61.6699 39.127C 61.5397 38.8665 61.4421 38.5898 61.377 38.2969C 61.2793 37.9714 61.2142 37.6621 61.1816 37.3691C 61.1491 37.0436 61.1491 36.7995 61.1816 36.6367L 65.8691 33.9512L 66.1621 21.4512C 66.2272 21.028 66.4876 20.8652 66.9434 20.9629C 67.3991 21.028 67.8711 21.1257 68.3594 21.2559C 68.4245 21.2559 68.5221 21.2884 68.6523 21.3535C 68.8151 21.3861 68.929 21.4186 68.9941 21.4512C 68.929 22.3301 68.8477 23.2904 68.75 24.332C 68.6849 25.3411 68.6198 26.3665 68.5547 27.4082C 68.4896 28.4173 68.4408 29.4102 68.4082 30.3867C 68.4082 31.3633 68.457 32.2422 68.5547 33.0234L 75.8789 30.9727C 76.0091 30.9401 76.1068 31.0378 76.1719 31.2656C 76.2695 31.4609 76.3509 31.7051 76.416 31.998C 76.5137 32.291 76.5788 32.584 76.6113 32.877C 76.6439 33.1699 76.6602 33.3164 76.6602 33.3164L 68.3594 36.832C 68.3594 37.125 68.3757 37.8249 68.4082 38.9316C 68.4733 40.0384 68.5384 41.3568 68.6035 42.8867C 68.6686 44.3841 68.7337 46.0117 68.7988 47.7695C 68.8639 49.4948 68.929 51.1061 68.9941 52.6035C 69.0592 54.1009 69.1081 55.4193 69.1406 56.5586C 69.1732 57.6654 69.1895 58.3652 69.1895 58.6582C 69.1243 59.6348 68.8314 60.123 68.3105 60.123C 67.8223 60.123 67.2852 59.8789 66.6992 59.3906L 65.4785 38.1504ZM 91.4551 57.7305C 91.2923 56.8841 91.1458 55.875 91.0156 54.7031C 90.918 53.4987 90.804 52.2943 90.6738 51.0898C 90.5436 49.8529 90.3809 48.6973 90.1855 47.623C 90.0228 46.5488 89.7624 45.6699 89.4043 44.9863C 87.7441 48.3717 86.2793 51.041 85.0098 52.9941C 83.7402 54.9147 82.6172 56.2982 81.6406 57.1445C 80.6966 57.9583 79.8991 58.349 79.248 58.3164C 78.597 58.2839 78.0599 57.9909 77.6367 57.4375C 77.2135 56.8841 76.9043 56.1842 76.709 55.3379C 76.5462 54.459 76.4323 53.6452 76.3672 52.8965C 76.3672 52.1803 76.5299 51.1712 76.8555 49.8691C 77.181 48.5671 77.6204 47.151 78.1738 45.6211C 78.7272 44.0586 79.3783 42.4798 80.127 40.8848C 80.9082 39.2897 81.7383 37.8411 82.6172 36.5391C 83.4961 35.237 84.4076 34.1628 85.3516 33.3164C 86.2956 32.4701 87.2396 32.0469 88.1836 32.0469C 89.5833 31.819 90.6087 32.1283 91.2598 32.9746C 91.9434 33.7884 92.0736 35.1719 91.6504 37.125C 91.6504 39.2734 91.7318 41.1126 91.8945 42.6426C 92.0898 44.1725 92.2852 45.6374 92.4805 47.0371C 92.7083 48.4368 92.9036 49.9017 93.0664 51.4316C 93.2617 52.9616 93.3594 54.8008 93.3594 56.9492C 93.3594 57.3398 93.3105 57.6816 93.2129 57.9746C 93.1478 58.235 92.7572 58.3652 92.041 58.3652C 91.9434 58.3652 91.8132 58.2839 91.6504 58.1211C 91.5202 57.9583 91.4551 57.8281 91.4551 57.7305ZM 88.8184 35.9043C 88.4603 35.3835 87.972 35.3346 87.3535 35.7578C 86.735 36.181 86.084 36.8809 85.4004 37.8574C 84.7168 38.834 84.0169 40.0059 83.3008 41.373C 82.5846 42.7402 81.9173 44.1237 81.2988 45.5234C 80.6803 46.9232 80.1432 48.2578 79.6875 49.5273C 79.2318 50.7643 78.9225 51.7897 78.7598 52.6035C 78.7598 53.7754 78.9388 54.4427 79.2969 54.6055C 79.6549 54.7357 80.0944 54.5404 80.6152 54.0195C 81.1361 53.4987 81.722 52.75 82.373 51.7734C 83.0566 50.7969 83.7077 49.7552 84.3262 48.6484C 84.9772 47.5417 85.5794 46.4674 86.1328 45.4258C 86.7188 44.3841 87.1745 43.5378 87.5 42.8867C 87.793 42.2031 88.0208 41.5684 88.1836 40.9824C 88.3464 40.3965 88.4766 39.8431 88.5742 39.3223C 88.7044 38.7689 88.7695 38.2155 88.7695 37.6621C 88.8021 37.1087 88.8184 36.5228 88.8184 35.9043ZM 96.9238 56.5098C 97.1517 55.0124 97.2982 53.1406 97.3633 50.8945C 97.4609 48.6484 97.4935 46.2559 97.4609 43.7168C 97.4609 41.1777 97.4121 38.5573 97.3145 35.8555C 97.2168 33.1536 97.0866 30.5983 96.9238 28.1895C 96.7611 25.748 96.5658 23.5671 96.3379 21.6465C 96.1426 19.7259 95.931 18.2122 95.7031 17.1055C 95.9961 16.9102 96.2402 16.7637 96.4355 16.666C 96.6634 16.5358 96.9238 16.4707 97.2168 16.4707C 97.4447 16.4707 97.64 16.5195 97.8027 16.6172C 97.9655 16.6823 98.0957 16.8451 98.1934 17.1055C 98.8444 23.4857 99.2839 29.9147 99.5117 36.3926C 99.7721 42.8704 99.9674 49.3158 100.098 55.7285C 100.098 56.0215 100.098 56.4284 100.098 56.9492C 100.098 57.4375 100.081 57.6979 100.049 57.7305C 99.5931 57.9583 99.1862 58.0723 98.8281 58.0723C 98.4701 58.0397 98.1445 57.9421 97.8516 57.7793C 97.5586 57.584 97.3307 57.3724 97.168 57.1445C 97.0052 56.9167 96.9238 56.7051 96.9238 56.5098ZM 131.885 58.0234C 131.885 57.3724 132.292 56.5423 133.105 55.5332C 133.919 54.4915 134.928 53.3197 136.133 52.0176C 137.337 50.7155 138.656 49.2995 140.088 47.7695C 141.52 46.2396 142.839 44.6608 144.043 43.0332C 145.247 41.373 146.257 39.6966 147.07 38.0039C 147.884 36.2786 148.291 34.5859 148.291 32.9258C 148.291 32.0469 148.047 31.2982 147.559 30.6797C 147.07 30.0286 146.436 29.4753 145.654 29.0195C 144.906 28.5638 144.043 28.2057 143.066 27.9453C 142.122 27.6849 141.162 27.4896 140.186 27.3594C 139.209 27.1966 138.281 27.099 137.402 27.0664C 136.523 27.0013 135.775 26.9688 135.156 26.9688C 134.993 26.9688 134.782 26.985 134.521 27.0176C 134.261 27.0176 133.984 27.0339 133.691 27.0664C 133.431 27.0664 133.187 27.0827 132.959 27.1152C 132.731 27.1478 132.601 27.1641 132.568 27.1641L 131.934 27.75C 131.934 27.8151 131.917 28.0918 131.885 28.5801C 131.885 29.0684 131.868 29.6217 131.836 30.2402C 131.836 30.8587 131.836 31.4935 131.836 32.1445L 131.836 33.6582C 131.836 36.946 131.95 40.2174 132.178 43.4727C 132.438 46.6953 132.568 49.9505 132.568 53.2383C 132.568 53.4336 132.568 53.6452 132.568 53.873C 132.601 54.1009 132.601 54.3288 132.568 54.5566C 132.536 54.752 132.438 54.931 132.275 55.0938C 132.145 55.224 131.934 55.2891 131.641 55.2891C 131.445 55.2891 131.25 55.2402 131.055 55.1426C 130.859 55.0449 130.745 54.8822 130.713 54.6543L 128.809 28.9707C 128.711 29.0358 128.532 29.1335 128.271 29.2637C 128.044 29.3613 127.799 29.4753 127.539 29.6055C 127.279 29.7357 127.018 29.8822 126.758 30.0449C 126.53 30.1751 126.383 30.2402 126.318 30.2402C 126.286 30.2402 126.221 30.2565 126.123 30.2891C 126.058 30.2891 126.009 30.2891 125.977 30.2891C 125.814 30.2891 125.618 30.2565 125.391 30.1914C 125.195 30.0938 125.098 29.8984 125.098 29.6055C 125.098 29.1172 125.195 28.7266 125.391 28.4336C 125.618 28.1081 125.895 27.8151 126.221 27.5547C 126.579 27.2943 126.953 27.0339 127.344 26.7734C 127.734 26.513 128.092 26.1875 128.418 25.7969C 128.776 25.3737 129.053 24.8529 129.248 24.2344C 129.476 23.6159 129.59 22.8346 129.59 21.8906C 130.241 21.8906 130.648 22.0046 130.811 22.2324C 130.973 22.4603 131.071 22.737 131.104 23.0625C 131.136 23.3555 131.169 23.6647 131.201 23.9902C 131.266 24.2832 131.51 24.4948 131.934 24.625C 132.845 24.5924 133.936 24.5924 135.205 24.625C 136.507 24.6576 137.858 24.7715 139.258 24.9668C 140.69 25.1296 142.09 25.39 143.457 25.748C 144.857 26.1061 146.094 26.6107 147.168 27.2617C 148.275 27.9128 149.137 28.7428 149.756 29.752C 150.407 30.7285 150.7 31.9329 150.635 33.3652C 150.212 35.8717 149.398 38.2806 148.193 40.5918C 147.021 42.903 145.622 45.1328 143.994 47.2812C 142.399 49.3971 140.658 51.4316 138.77 53.3848C 136.914 55.3379 135.059 57.2096 133.203 59C 133.171 59 133.122 59 133.057 59C 132.992 59.0326 132.943 59.0488 132.91 59.0488C 132.617 59.0488 132.373 58.9512 132.178 58.7559C 131.982 58.5605 131.885 58.3164 131.885 58.0234ZM 154.443 48.4531C 154.281 48.4857 154.036 48.5345 153.711 48.5996C 153.385 48.6647 153.044 48.681 152.686 48.6484C 152.327 48.6159 152.018 48.5182 151.758 48.3555C 151.465 48.1927 151.318 47.916 151.318 47.5254C 151.318 47.2975 151.367 47.1348 151.465 47.0371C 151.562 46.9395 151.725 46.793 151.953 46.5977C 152.669 46.0117 153.271 45.263 153.76 44.3516C 154.281 43.4076 154.753 42.4147 155.176 41.373C 155.599 40.2988 156.038 39.2409 156.494 38.1992C 156.982 37.125 157.536 36.1647 158.154 35.3184C 158.773 34.472 159.538 33.7884 160.449 33.2676C 161.361 32.7467 162.484 32.5026 163.818 32.5352C 164.372 32.5352 164.99 32.6654 165.674 32.9258C 166.357 33.1862 166.992 33.5443 167.578 34C 168.164 34.4232 168.652 34.944 169.043 35.5625C 169.434 36.181 169.629 36.8646 169.629 37.6133C 169.792 37.8737 169.629 38.248 169.141 38.7363C 168.685 39.2246 168.05 39.7617 167.236 40.3477C 166.423 40.901 165.495 41.487 164.453 42.1055C 163.444 42.6914 162.467 43.2448 161.523 43.7656C 160.579 44.2865 159.749 44.7422 159.033 45.1328C 158.317 45.5234 157.845 45.8164 157.617 46.0117C 157.454 46.3372 157.324 46.7116 157.227 47.1348C 157.129 47.5579 157.048 47.9648 156.982 48.3555C 156.95 48.7135 156.917 49.0553 156.885 49.3809C 156.885 49.6738 156.885 49.9017 156.885 50.0645C 156.885 50.6829 156.852 51.3665 156.787 52.1152C 156.755 52.8639 156.787 53.5801 156.885 54.2637C 157.015 54.9147 157.292 55.4681 157.715 55.9238C 158.138 56.347 158.854 56.5586 159.863 56.5586C 160.938 56.5586 161.947 56.2982 162.891 55.7773C 163.835 55.224 164.714 54.5566 165.527 53.7754C 166.341 52.9941 167.074 52.1478 167.725 51.2363C 168.408 50.3249 169.01 49.4785 169.531 48.6973C 170.085 47.8835 170.573 47.2161 170.996 46.6953C 171.419 46.1745 171.777 45.9141 172.07 45.9141C 172.396 45.9141 172.738 45.9792 173.096 46.1094C 173.486 46.207 173.682 46.4674 173.682 46.8906C 173.682 47.4766 173.438 48.1764 172.949 48.9902C 172.493 49.804 171.875 50.6667 171.094 51.5781C 170.345 52.4896 169.466 53.401 168.457 54.3125C 167.48 55.1914 166.488 55.9889 165.479 56.7051C 164.469 57.3887 163.477 57.9583 162.5 58.4141C 161.523 58.8372 160.661 59.0488 159.912 59.0488C 158.447 59.0488 157.34 58.6908 156.592 57.9746C 155.843 57.2585 155.306 56.3633 154.98 55.2891C 154.688 54.2148 154.525 53.0755 154.492 51.8711C 154.492 50.6341 154.476 49.4948 154.443 48.4531ZM 163.428 35.2695C 162.874 35.2695 162.288 35.5462 161.67 36.0996C 161.051 36.6204 160.465 37.2715 159.912 38.0527C 159.391 38.8014 158.952 39.5827 158.594 40.3965C 158.268 41.1777 158.105 41.8288 158.105 42.3496C 158.594 42.3496 159.294 42.1706 160.205 41.8125C 161.149 41.4219 162.077 40.9499 162.988 40.3965C 163.9 39.8431 164.697 39.2572 165.381 38.6387C 166.064 38.0202 166.406 37.4342 166.406 36.8809C 166.406 36.5879 166.292 36.3438 166.064 36.1484C 165.837 35.9531 165.56 35.7904 165.234 35.6602C 164.941 35.5299 164.632 35.4323 164.307 35.3672C 163.981 35.3021 163.688 35.2695 163.428 35.2695ZM 179.98 58.2676C 179.98 58.3001 180.322 58.1048 181.006 57.6816C 181.722 57.2585 182.552 56.7051 183.496 56.0215C 184.473 55.3053 185.465 54.5404 186.475 53.7266C 187.484 52.8802 188.314 52.0827 188.965 51.334C 189.616 50.5853 189.958 49.9505 189.99 49.4297C 190.055 48.8763 189.616 48.5182 188.672 48.3555C 187.5 48.1927 186.507 48.209 185.693 48.4043C 184.912 48.5996 184.196 48.8275 183.545 49.0879C 182.894 49.3483 182.275 49.5924 181.689 49.8203C 181.136 50.0482 180.518 50.1296 179.834 50.0645C 178.402 50.0645 177.409 49.625 176.855 48.7461C 176.335 47.8346 176.074 46.6139 176.074 45.084C 176.074 43.554 176.416 42.1055 177.1 40.7383C 177.783 39.3385 178.662 38.1341 179.736 37.125C 180.811 36.1159 182.048 35.3184 183.447 34.7324C 184.847 34.1139 186.279 33.8047 187.744 33.8047C 188.33 33.8047 188.835 33.8535 189.258 33.9512C 189.681 34.0488 189.893 34.4232 189.893 35.0742C 189.893 35.5299 189.697 35.9694 189.307 36.3926C 188.916 36.7832 188.477 36.9785 187.988 36.9785C 187.956 36.9785 187.874 36.9622 187.744 36.9297C 187.614 36.8646 187.484 36.7832 187.354 36.6855C 187.223 36.5879 187.093 36.5228 186.963 36.4902C 186.833 36.4251 186.751 36.3926 186.719 36.3926C 185.677 36.0996 184.668 36.2461 183.691 36.832C 182.715 37.418 181.836 38.2155 181.055 39.2246C 180.306 40.2012 179.704 41.2754 179.248 42.4473C 178.792 43.5866 178.564 44.612 178.564 45.5234C 178.564 45.8815 178.63 46.1745 178.76 46.4023C 178.923 46.5977 179.118 46.7441 179.346 46.8418C 179.606 46.9395 179.883 47.0046 180.176 47.0371C 180.501 47.0371 180.827 47.0371 181.152 47.0371C 181.803 47.0371 182.454 46.9395 183.105 46.7441C 183.789 46.5488 184.44 46.321 185.059 46.0605C 185.71 45.8001 186.361 45.5723 187.012 45.377C 187.695 45.1816 188.395 45.084 189.111 45.084C 189.437 45.084 189.795 45.1816 190.186 45.377C 190.576 45.5397 190.934 45.8001 191.26 46.1582C 191.585 46.4837 191.862 46.8743 192.09 47.3301C 192.318 47.7533 192.448 48.2253 192.48 48.7461C 192.676 49.2018 192.611 49.804 192.285 50.5527C 191.992 51.3014 191.536 52.099 190.918 52.9453C 190.299 53.7917 189.551 54.6543 188.672 55.5332C 187.793 56.3796 186.914 57.1608 186.035 57.877C 185.156 58.5605 184.294 59.1139 183.447 59.5371C 182.601 59.9928 181.885 60.2044 181.299 60.1719C 180.648 60.1719 180.257 59.9766 180.127 59.5859C 180.029 59.1953 179.98 58.7559 179.98 58.2676ZM 195.215 58.0234C 195.215 55.9076 195.166 53.6777 195.068 51.334C 195.003 48.9902 194.922 46.6302 194.824 44.2539C 194.759 41.8451 194.743 39.485 194.775 37.1738C 194.808 34.8626 194.954 32.6979 195.215 30.6797C 195.28 30.6471 195.426 30.6309 195.654 30.6309C 195.915 30.5983 196.094 30.582 196.191 30.582C 196.647 30.582 197.005 30.6634 197.266 30.8262C 197.559 30.9564 197.705 31.2656 197.705 31.7539C 197.705 33.6745 197.689 35.7741 197.656 38.0527C 197.656 40.2988 197.64 42.5938 197.607 44.9375C 197.607 47.2487 197.607 49.5436 197.607 51.8223C 197.607 54.1009 197.64 56.168 197.705 58.0234C 197.738 58.5768 197.624 58.9349 197.363 59.0977C 197.135 59.293 196.842 59.3906 196.484 59.3906C 196.094 59.3906 195.768 59.293 195.508 59.0977C 195.247 58.9349 195.15 58.5768 195.215 58.0234ZM 194.141 23.0625C 194.141 22.6719 194.271 22.4115 194.531 22.2812C 194.792 22.151 195.085 22.0859 195.41 22.0859C 196.061 22.0859 196.468 22.2975 196.631 22.7207C 196.794 23.1439 196.875 23.6322 196.875 24.1855C 196.68 24.5436 196.436 24.804 196.143 24.9668C 195.85 25.097 195.54 25.1296 195.215 25.0645C 194.922 24.9668 194.661 24.7552 194.434 24.4297C 194.238 24.1042 194.141 23.6484 194.141 23.0625ZM 204.443 78.0918C 207.308 77.929 209.554 77.1803 211.182 75.8457C 212.842 74.5111 214.079 72.7858 214.893 70.6699C 215.706 68.554 216.195 66.1289 216.357 63.3945C 216.52 60.6927 216.536 57.8932 216.406 54.9961C 216.276 52.099 216.081 49.2018 215.82 46.3047C 215.592 43.375 215.495 40.6569 215.527 38.1504C 214.128 42.252 212.809 45.5723 211.572 48.1113C 210.335 50.6178 209.18 52.5221 208.105 53.8242C 207.064 55.0938 206.104 55.875 205.225 56.168C 204.378 56.4284 203.63 56.3796 202.979 56.0215C 202.327 55.6309 201.79 55.0286 201.367 54.2148C 200.977 53.3685 200.7 52.5059 200.537 51.627C 200.602 50.1296 200.895 48.4857 201.416 46.6953C 201.969 44.8724 202.669 43.0983 203.516 41.373C 204.395 39.6152 205.404 37.9876 206.543 36.4902C 207.682 34.9603 208.887 33.7721 210.156 32.9258C 211.426 32.0469 212.744 31.5911 214.111 31.5586C 215.479 31.4935 216.797 32.0143 218.066 33.1211C 218.099 33.1536 218.148 33.5931 218.213 34.4395C 218.311 35.2533 218.408 36.3438 218.506 37.7109C 218.636 39.0456 218.766 40.5592 218.896 42.252C 219.059 43.9121 219.206 45.6048 219.336 47.3301C 219.466 49.0228 219.58 50.6504 219.678 52.2129C 219.775 53.7754 219.873 55.1263 219.971 56.2656C 220.101 58.1211 220.02 60.0905 219.727 62.1738C 219.466 64.2572 219.043 66.2754 218.457 68.2285C 217.871 70.2142 217.122 72.0697 216.211 73.7949C 215.332 75.5202 214.307 76.9362 213.135 78.043C 211.995 79.1497 210.71 79.8496 209.277 80.1426C 207.878 80.4681 206.38 80.224 204.785 79.4102C 204.688 79.4102 204.541 79.3939 204.346 79.3613C 204.15 79.3613 203.988 79.3125 203.857 79.2148C 203.76 79.1172 203.743 78.987 203.809 78.8242C 203.874 78.6615 204.085 78.4173 204.443 78.0918ZM 203.076 51.2852C 203.402 52.2943 203.825 52.8151 204.346 52.8477C 204.899 52.8477 205.485 52.5059 206.104 51.8223C 206.722 51.1061 207.389 50.1133 208.105 48.8438C 208.854 47.5742 209.587 46.1908 210.303 44.6934C 211.019 43.196 211.719 41.666 212.402 40.1035C 213.118 38.5085 213.786 37.0273 214.404 35.6602C 214.404 35.3021 214.323 34.9766 214.16 34.6836C 213.997 34.3581 213.639 34.2604 213.086 34.3906C 212.174 34.5859 211.279 35.0254 210.4 35.709C 209.554 36.3926 208.757 37.2389 208.008 38.248C 207.292 39.2246 206.624 40.3151 206.006 41.5195C 205.42 42.6914 204.899 43.8796 204.443 45.084C 204.02 46.2559 203.678 47.3789 203.418 48.4531C 203.19 49.5273 203.076 50.4714 203.076 51.2852ZM 225 58.3652C 224.642 53.9707 224.316 49.5762 224.023 45.1816C 223.763 40.7546 223.47 36.1647 223.145 31.4121C 223.145 30.6309 223.568 30.2402 224.414 30.2402L 224.805 30.2402C 224.902 30.2402 225.016 30.3704 225.146 30.6309C 225.277 30.8913 225.407 31.3796 225.537 32.0957C 225.7 32.7793 225.863 33.8372 226.025 35.2695C 226.221 36.6693 226.449 38.5085 226.709 40.7871C 226.969 43.0658 227.262 45.9141 227.588 49.332C 228.271 47.1185 228.809 44.9701 229.199 42.8867C 229.59 40.8034 230.094 38.9154 230.713 37.2227C 231.331 35.4974 232.194 33.9837 233.301 32.6816C 234.44 31.3796 236.068 30.4193 238.184 29.8008C 239.355 29.9961 240.299 30.7122 241.016 31.9492C 241.732 33.1536 242.301 34.651 242.725 36.4414C 243.148 38.2318 243.441 40.1849 243.604 42.3008C 243.766 44.3841 243.864 46.3861 243.896 48.3066C 243.929 50.2272 243.945 51.9525 243.945 53.4824C 243.945 54.9798 243.978 56.054 244.043 56.7051C 243.945 56.9655 243.799 57.1934 243.604 57.3887C 243.408 57.584 243.18 57.7305 242.92 57.8281C 242.692 57.8932 242.464 57.9095 242.236 57.877C 242.008 57.8118 241.797 57.6328 241.602 57.3398C 241.602 56.9818 241.569 56.2493 241.504 55.1426C 241.439 54.0358 241.357 52.75 241.26 51.2852C 241.162 49.7878 241.048 48.209 240.918 46.5488C 240.82 44.8561 240.723 43.2773 240.625 41.8125C 240.56 40.3151 240.495 39.013 240.43 37.9062C 240.365 36.7995 240.316 36.0671 240.283 35.709C 239.6 34.5046 238.916 33.821 238.232 33.6582C 237.581 33.4954 236.914 33.707 236.23 34.293C 235.579 34.8789 234.945 35.7741 234.326 36.9785C 233.708 38.1829 233.122 39.5501 232.568 41.0801C 232.015 42.5775 231.494 44.1562 231.006 45.8164C 230.518 47.4766 230.094 49.0879 229.736 50.6504C 229.378 52.1803 229.069 53.5801 228.809 54.8496C 228.581 56.0866 228.434 57.0469 228.369 57.7305C 228.271 57.9583 228.06 58.1862 227.734 58.4141C 227.441 58.6094 227.116 58.7559 226.758 58.8535C 226.432 58.9512 226.09 58.9837 225.732 58.9512C 225.407 58.8861 225.163 58.6908 225 58.3652Z"/>
<path id="path2_fill" d="M 12.5781 92.4375C 12.5781 91.3958 13.2292 90.0677 14.5312 88.4531C 15.8333 86.7865 17.4479 84.9115 19.375 82.8281C 21.3021 80.7448 23.4115 78.4792 25.7031 76.0312C 27.9948 73.5833 30.1042 71.0573 32.0312 68.4531C 33.9583 65.7969 35.5729 63.1146 36.875 60.4062C 38.1771 57.6458 38.8281 54.9375 38.8281 52.2812C 38.8281 50.875 38.4375 49.6771 37.6562 48.6875C 36.875 47.6458 35.8594 46.7604 34.6094 46.0312C 33.4115 45.3021 32.0312 44.7292 30.4688 44.3125C 28.9583 43.8958 27.4219 43.5833 25.8594 43.375C 24.2969 43.1146 22.8125 42.9583 21.4062 42.9062C 20 42.8021 18.8021 42.75 17.8125 42.75C 17.5521 42.75 17.2135 42.776 16.7969 42.8281C 16.3802 42.8281 15.9375 42.8542 15.4688 42.9062C 15.0521 42.9062 14.6615 42.9323 14.2969 42.9844C 13.9323 43.0365 13.724 43.0625 13.6719 43.0625L 12.6562 44C 12.6562 44.1042 12.6302 44.5469 12.5781 45.3281C 12.5781 46.1094 12.5521 46.9948 12.5 47.9844C 12.5 48.974 12.5 49.9896 12.5 51.0312L 12.5 53.4531C 12.5 58.7135 12.6823 63.9479 13.0469 69.1562C 13.4635 74.3125 13.6719 79.5208 13.6719 84.7812C 13.6719 85.0938 13.6719 85.4323 13.6719 85.7969C 13.724 86.1615 13.724 86.526 13.6719 86.8906C 13.6198 87.2031 13.4635 87.4896 13.2031 87.75C 12.9948 87.9583 12.6562 88.0625 12.1875 88.0625C 11.875 88.0625 11.5625 87.9844 11.25 87.8281C 10.9375 87.6719 10.7552 87.4115 10.7031 87.0469L 7.65625 45.9531C 7.5 46.0573 7.21354 46.2135 6.79688 46.4219C 6.43229 46.5781 6.04167 46.7604 5.625 46.9688C 5.20833 47.1771 4.79167 47.4115 4.375 47.6719C 4.01042 47.8802 3.77604 47.9844 3.67188 47.9844C 3.61979 47.9844 3.51562 48.0104 3.35938 48.0625C 3.25521 48.0625 3.17708 48.0625 3.125 48.0625C 2.86458 48.0625 2.55208 48.0104 2.1875 47.9062C 1.875 47.75 1.71875 47.4375 1.71875 46.9688C 1.71875 46.1875 1.875 45.5625 2.1875 45.0938C 2.55208 44.5729 2.99479 44.1042 3.51562 43.6875C 4.08854 43.2708 4.6875 42.8542 5.3125 42.4375C 5.9375 42.0208 6.51042 41.5 7.03125 40.875C 7.60417 40.1979 8.04688 39.3646 8.35938 38.375C 8.72396 37.3854 8.90625 36.1354 8.90625 34.625C 9.94792 34.625 10.599 34.8073 10.8594 35.1719C 11.1198 35.5365 11.276 35.9792 11.3281 36.5C 11.3802 36.9688 11.4323 37.4635 11.4844 37.9844C 11.5885 38.4531 11.9792 38.7917 12.6562 39C 14.1146 38.9479 15.8594 38.9479 17.8906 39C 19.974 39.0521 22.1354 39.2344 24.375 39.5469C 26.6667 39.8073 28.9062 40.224 31.0938 40.7969C 33.3333 41.3698 35.3125 42.1771 37.0312 43.2188C 38.8021 44.2604 40.1823 45.5885 41.1719 47.2031C 42.2135 48.7656 42.6823 50.6927 42.5781 52.9844C 41.901 56.9948 40.599 60.849 38.6719 64.5469C 36.7969 68.2448 34.5573 71.8125 31.9531 75.25C 29.401 78.6354 26.6146 81.8906 23.5938 85.0156C 20.625 88.1406 17.6562 91.1354 14.6875 94C 14.6354 94 14.5573 94 14.4531 94C 14.349 94.0521 14.2708 94.0781 14.2188 94.0781C 13.75 94.0781 13.3594 93.9219 13.0469 93.6094C 12.7344 93.2969 12.5781 92.9062 12.5781 92.4375ZM 46.4062 90.9531C 47.1354 90.1719 47.7604 89.651 48.2812 89.3906C 48.8021 89.0781 49.4792 88.9219 50.3125 88.9219C 51.7188 88.9219 52.4219 89.599 52.4219 90.9531C 52.4219 91.2656 52.3177 91.6302 52.1094 92.0469C 51.9531 92.4115 51.7188 92.776 51.4062 93.1406C 51.1458 93.5052 50.8333 93.7917 50.4688 94C 50.1042 94.1562 49.7656 94.1562 49.4531 94C 49.0885 94.2604 48.6979 94.3125 48.2812 94.1562C 47.9167 94.0521 47.5781 93.8438 47.2656 93.5312C 46.9531 93.2188 46.6927 92.8542 46.4844 92.4375C 46.3281 91.9688 46.3021 91.474 46.4062 90.9531ZM 75.2656 92.4375C 75.2656 91.3958 75.9167 90.0677 77.2188 88.4531C 78.5208 86.7865 80.1354 84.9115 82.0625 82.8281C 83.9896 80.7448 86.099 78.4792 88.3906 76.0312C 90.6823 73.5833 92.7917 71.0573 94.7188 68.4531C 96.6458 65.7969 98.2604 63.1146 99.5625 60.4062C 100.865 57.6458 101.516 54.9375 101.516 52.2812C 101.516 50.875 101.125 49.6771 100.344 48.6875C 99.5625 47.6458 98.5469 46.7604 97.2969 46.0312C 96.099 45.3021 94.7188 44.7292 93.1562 44.3125C 91.6458 43.8958 90.1094 43.5833 88.5469 43.375C 86.9844 43.1146 85.5 42.9583 84.0938 42.9062C 82.6875 42.8021 81.4896 42.75 80.5 42.75C 80.2396 42.75 79.901 42.776 79.4844 42.8281C 79.0677 42.8281 78.625 42.8542 78.1562 42.9062C 77.7396 42.9062 77.349 42.9323 76.9844 42.9844C 76.6198 43.0365 76.4115 43.0625 76.3594 43.0625L 75.3438 44C 75.3438 44.1042 75.3177 44.5469 75.2656 45.3281C 75.2656 46.1094 75.2396 46.9948 75.1875 47.9844C 75.1875 48.974 75.1875 49.9896 75.1875 51.0312L 75.1875 53.4531C 75.1875 58.7135 75.3698 63.9479 75.7344 69.1562C 76.151 74.3125 76.3594 79.5208 76.3594 84.7812C 76.3594 85.0938 76.3594 85.4323 76.3594 85.7969C 76.4115 86.1615 76.4115 86.526 76.3594 86.8906C 76.3073 87.2031 76.151 87.4896 75.8906 87.75C 75.6823 87.9583 75.3438 88.0625 74.875 88.0625C 74.5625 88.0625 74.25 87.9844 73.9375 87.8281C 73.625 87.6719 73.4427 87.4115 73.3906 87.0469L 70.3438 45.9531C 70.1875 46.0573 69.901 46.2135 69.4844 46.4219C 69.1198 46.5781 68.7292 46.7604 68.3125 46.9688C 67.8958 47.1771 67.4792 47.4115 67.0625 47.6719C 66.6979 47.8802 66.4635 47.9844 66.3594 47.9844C 66.3073 47.9844 66.2031 48.0104 66.0469 48.0625C 65.9427 48.0625 65.8646 48.0625 65.8125 48.0625C 65.5521 48.0625 65.2396 48.0104 64.875 47.9062C 64.5625 47.75 64.4062 47.4375 64.4062 46.9688C 64.4062 46.1875 64.5625 45.5625 64.875 45.0938C 65.2396 44.5729 65.6823 44.1042 66.2031 43.6875C 66.776 43.2708 67.375 42.8542 68 42.4375C 68.625 42.0208 69.1979 41.5 69.7188 40.875C 70.2917 40.1979 70.7344 39.3646 71.0469 38.375C 71.4115 37.3854 71.5938 36.1354 71.5938 34.625C 72.6354 34.625 73.2865 34.8073 73.5469 35.1719C 73.8073 35.5365 73.9635 35.9792 74.0156 36.5C 74.0677 36.9688 74.1198 37.4635 74.1719 37.9844C 74.276 38.4531 74.6667 38.7917 75.3438 39C 76.8021 38.9479 78.5469 38.9479 80.5781 39C 82.6615 39.0521 84.8229 39.2344 87.0625 39.5469C 89.3542 39.8073 91.5938 40.224 93.7812 40.7969C 96.0208 41.3698 98 42.1771 99.7188 43.2188C 101.49 44.2604 102.87 45.5885 103.859 47.2031C 104.901 48.7656 105.37 50.6927 105.266 52.9844C 104.589 56.9948 103.286 60.849 101.359 64.5469C 99.4844 68.2448 97.2448 71.8125 94.6406 75.25C 92.0885 78.6354 89.3021 81.8906 86.2812 85.0156C 83.3125 88.1406 80.3438 91.1354 77.375 94C 77.3229 94 77.2448 94 77.1406 94C 77.0365 94.0521 76.9583 94.0781 76.9062 94.0781C 76.4375 94.0781 76.0469 93.9219 75.7344 93.6094C 75.4219 93.2969 75.2656 92.9062 75.2656 92.4375ZM 109.094 90.9531C 109.823 90.1719 110.448 89.651 110.969 89.3906C 111.49 89.0781 112.167 88.9219 113 88.9219C 114.406 88.9219 115.109 89.599 115.109 90.9531C 115.109 91.2656 115.005 91.6302 114.797 92.0469C 114.641 92.4115 114.406 92.776 114.094 93.1406C 113.833 93.5052 113.521 93.7917 113.156 94C 112.792 94.1562 112.453 94.1562 112.141 94C 111.776 94.2604 111.385 94.3125 110.969 94.1562C 110.604 94.0521 110.266 93.8438 109.953 93.5312C 109.641 93.2188 109.38 92.8542 109.172 92.4375C 109.016 91.9688 108.99 91.474 109.094 90.9531Z"/>
</defs>
</svg>
